<?xml version="1.0" standalone="no"?><!-- Generator: Gravit.io --><svg xmlns="http://www.w3.org/2000/svg" xmlns:xlink="http://www.w3.org/1999/xlink" style="isolation:isolate" viewBox="0 0 135 21.301" width="135" height="21.301"><defs><clipPath id="_clipPath_gj02jBOO9LoJ9tlNV5nMBns5K54yz5v7"><rect width="135" height="21.301"/></clipPath></defs><g clip-path="url(#_clipPath_gj02jBOO9LoJ9tlNV5nMBns5K54yz5v7)"><clipPath id="_clipPath_mO77U8KTFqQN8lkhSHy2PgBEhXf1iK6z"><rect x="0" y="0" width="135" height="21.301" transform="matrix(1,0,0,1,0,0)" fill="rgb(255,255,255)"/></clipPath><g clip-path="url(#_clipPath_mO77U8KTFqQN8lkhSHy2PgBEhXf1iK6z)"><g id="Group"><g id="logo"><g id="XMLID_26_"><path d=" M 124.615 12.358 C 125.031 11.942 125.446 11.527 125.758 11.112 C 127.315 9.554 128.769 7.996 130.327 6.438 C 130.431 6.335 130.535 6.231 130.742 6.231 C 131.988 6.231 133.338 6.231 134.688 6.231 C 134.169 6.75 133.754 7.269 133.235 7.788 C 131.988 9.035 130.846 10.385 129.6 11.631 C 129.392 11.838 129.392 12.046 129.496 12.254 C 131.262 14.954 132.923 17.758 134.688 20.458 C 134.792 20.665 134.896 20.769 135 20.873 C 134.896 21.081 134.792 20.977 134.688 20.977 C 133.546 20.977 132.404 20.977 131.262 20.977 C 130.95 20.977 130.846 20.873 130.638 20.665 C 129.496 18.796 128.354 16.823 127.212 14.954 C 127.004 14.642 127.004 14.538 126.692 14.85 C 126.173 15.473 125.55 16.096 125.031 16.615 C 124.823 16.823 124.823 16.927 124.823 17.238 C 124.823 18.381 124.823 19.523 124.823 20.562 C 124.823 20.873 124.719 20.977 124.512 20.977 C 123.577 20.977 122.746 20.977 121.812 20.977 C 121.396 20.977 121.292 20.873 121.292 20.458 C 121.292 16.615 121.292 12.669 121.292 8.827 C 121.292 6.127 121.292 3.531 121.292 0.831 C 121.292 0.415 121.396 0.312 121.812 0.312 C 122.642 0.312 123.473 0.312 124.304 0.312 C 124.719 0.312 124.823 0.415 124.823 0.831 C 124.823 4.362 124.823 7.996 124.823 11.527 C 124.615 11.942 124.615 12.046 124.615 12.358 Z " fill="rgb(24,112,200)"/><path d=" M 9.554 16.927 C 9.969 15.681 10.385 14.642 10.8 13.5 C 12.15 9.762 13.604 5.919 14.954 2.181 C 15.058 1.869 15.265 1.765 15.577 1.765 C 16.615 1.765 17.758 1.765 18.9 1.765 C 18.588 2.492 18.381 3.219 18.069 3.946 C 15.888 9.554 13.708 15.162 11.527 20.769 C 11.423 21.081 11.215 21.185 10.904 21.185 C 9.969 21.185 8.931 21.185 7.996 21.185 C 7.685 21.185 7.477 21.081 7.373 20.769 C 5.192 15.162 3.012 9.45 0.831 3.842 C 0.519 3.219 0.312 2.492 0 1.765 C 1.246 1.765 2.492 1.765 3.738 1.765 C 4.05 1.765 4.05 1.973 4.154 2.181 C 4.985 4.465 5.815 6.854 6.75 9.138 C 7.685 11.631 8.619 14.227 9.554 16.927 Z " fill="rgb(24,112,200)"/><path d=" M 35.515 10.8 C 35.515 7.581 35.515 4.258 35.515 1.038 C 35.515 0.623 35.619 0.519 36.035 0.519 C 36.969 0.519 37.8 0.519 38.735 0.519 C 39.046 0.519 39.046 0.623 39.046 0.935 C 39.046 7.581 39.046 14.227 39.046 20.873 C 39.046 21.081 38.942 21.185 38.735 21.185 C 37.8 21.185 36.865 21.185 35.931 21.185 C 35.515 21.185 35.412 21.081 35.412 20.665 C 35.515 17.342 35.515 14.019 35.515 10.8 Z " fill="rgb(24,112,200)"/><path d=" M 46.731 13.708 C 46.731 15.992 46.731 18.277 46.731 20.562 C 46.731 20.977 46.627 21.081 46.212 21.081 C 45.277 21.081 44.446 21.081 43.512 21.081 C 43.2 21.081 43.2 20.977 43.2 20.769 C 43.2 16.096 43.2 11.319 43.2 6.646 C 43.2 6.335 43.304 6.231 43.512 6.231 C 44.446 6.231 45.381 6.231 46.315 6.231 C 46.627 6.231 46.731 6.335 46.731 6.646 C 46.731 9.035 46.731 11.423 46.731 13.708 Z " fill="rgb(24,112,200)"/><path d=" M 46.938 2.077 C 46.938 3.219 46.212 4.05 45.069 4.05 C 43.927 4.05 43.096 3.219 43.2 1.973 C 43.2 0.727 43.927 0 45.173 0 C 46.108 0 46.938 0.831 46.938 2.077 Z " fill="rgb(24,112,200)"/></g></g></g><path d=" M 61.269 18.796 C 60.646 19.731 59.919 20.354 59.088 20.665 C 56.077 22.015 50.988 21.185 49.742 15.785 C 49.223 13.396 49.431 11.008 50.781 8.827 C 52.027 6.958 53.792 6.127 55.869 6.023 C 57.323 5.919 58.777 6.231 59.919 7.165 C 60.335 7.477 60.75 7.996 61.165 8.515 C 61.165 8.204 61.165 8.1 61.165 7.892 C 61.165 5.608 61.165 3.219 61.165 0.831 C 61.165 0.415 61.269 0.312 61.685 0.312 C 62.619 0.312 63.45 0.312 64.385 0.312 C 64.696 0.312 64.8 0.415 64.8 0.727 C 64.8 4.05 64.8 7.373 64.8 10.696 C 64.8 13.915 64.8 17.135 64.8 20.25 C 64.8 20.665 64.696 20.769 64.281 20.769 C 63.346 20.769 62.515 20.769 61.581 20.769 C 61.269 20.769 61.165 20.665 61.269 20.458 C 61.269 20.146 61.269 19.523 61.269 18.796 Z  M 57.219 9.242 C 59.504 9.242 61.165 10.904 61.269 13.188 C 61.373 14.538 61.165 15.888 60.127 16.823 C 58.985 18.069 57.635 18.381 56.077 17.965 C 54.519 17.55 53.585 16.512 53.273 14.954 C 52.962 13.915 53.065 12.877 53.377 11.838 C 54 10.177 55.35 9.242 57.219 9.242 Z " fill-rule="evenodd" fill="rgb(24,112,200)"/><path d=" M 72.796 18.796 C 72.796 19.523 72.796 20.146 72.796 20.665 C 72.796 21.081 72.692 21.081 72.381 21.081 C 71.446 21.081 70.615 21.081 69.681 21.081 C 69.369 21.081 69.265 20.977 69.265 20.665 C 69.265 17.758 69.265 14.954 69.265 12.046 C 69.265 8.412 69.265 4.673 69.265 1.038 C 69.265 0.623 69.369 0.519 69.785 0.519 C 70.615 0.519 71.55 0.519 72.381 0.519 C 72.692 0.519 72.796 0.623 72.796 0.935 C 72.796 3.323 72.796 5.815 72.796 8.204 C 72.796 8.308 72.796 8.412 72.796 8.619 C 73.212 8.1 73.523 7.685 73.938 7.373 C 76.742 5.088 81.519 5.919 83.388 9.138 C 85.05 12.046 85.154 15.058 83.492 18.069 C 82.142 20.562 79.858 21.392 77.158 21.288 C 75.6 21.081 74.146 20.562 72.796 18.796 Z  M 80.896 13.604 C 80.896 15.888 79.754 17.55 77.885 17.965 C 75.496 18.588 73.212 16.927 72.9 14.435 C 72.796 13.292 72.9 12.254 73.419 11.319 C 74.25 9.658 75.912 8.931 77.781 9.242 C 79.338 9.45 80.585 10.8 80.896 12.462 C 80.896 12.877 81 13.292 80.896 13.604 Z " fill-rule="evenodd" fill="rgb(24,112,200)"/><path d=" M 28.142 19.419 C 26.273 21.496 22.846 21.704 20.977 20.769 C 19.212 19.938 18.173 18.173 18.381 16.096 C 18.485 14.227 19.835 12.877 21.808 12.358 C 22.742 12.15 23.573 12.15 24.508 12.15 C 25.546 12.15 26.585 12.15 27.623 12.15 C 28.038 12.15 28.038 12.046 28.038 11.735 C 27.935 10.281 27.104 9.45 25.754 9.242 C 23.988 8.931 22.431 9.45 20.873 10.281 C 20.458 10.488 20.354 10.488 20.146 10.073 C 19.835 9.45 19.523 8.931 19.212 8.308 C 19.108 8.1 19.108 7.996 19.315 7.892 C 21.912 6.335 24.715 5.712 27.727 6.438 C 30.115 6.958 31.362 8.723 31.465 11.112 C 31.569 13.085 31.465 15.058 31.465 17.031 C 31.465 18.277 31.465 19.419 31.465 20.665 C 31.465 20.977 31.362 21.081 31.05 21.081 C 30.115 21.081 29.181 21.081 28.246 21.081 C 27.935 21.081 27.831 20.977 27.935 20.769 C 28.142 20.354 28.142 19.938 28.142 19.419 Z  M 25.962 14.642 C 26.585 14.642 27.208 14.642 27.831 14.642 C 28.142 14.642 28.142 14.746 28.142 15.058 C 28.142 17.031 27 18.277 25.027 18.485 C 24.3 18.588 23.573 18.588 22.95 18.277 C 22.327 17.965 21.912 17.55 21.808 16.823 C 21.704 15.888 22.119 15.162 22.95 14.954 C 23.365 14.85 23.781 14.746 24.196 14.746 C 24.819 14.642 25.338 14.642 25.962 14.642 Z " fill-rule="evenodd" fill="rgb(24,112,200)"/><path d=" M 101.25 12.877 C 101.25 17.862 98.654 20.769 94.604 21.185 C 92.319 21.392 90.242 20.977 88.477 19.419 C 87.127 18.277 86.4 16.823 86.088 15.058 C 85.777 13.188 85.985 11.423 86.815 9.865 C 87.958 7.685 89.931 6.542 92.215 6.231 C 94.085 5.919 95.85 6.127 97.512 7.062 C 100.108 8.412 101.25 10.696 101.25 12.877 Z  M 89.515 13.812 C 89.515 11.631 90.658 9.969 92.319 9.45 C 95.019 8.619 97.408 10.385 97.615 13.188 C 97.719 14.538 97.512 15.785 96.577 16.823 C 95.435 18.173 93.877 18.485 92.319 17.965 C 90.658 17.446 89.827 16.2 89.619 14.642 C 89.515 14.331 89.515 14.019 89.515 13.812 Z " fill-rule="evenodd" fill="rgb(24,112,200)"/><path d=" M 118.177 14.435 C 118.177 16.408 117.242 18.692 114.854 20.146 C 112.05 21.912 107.792 21.6 105.196 19.419 C 103.846 18.277 103.223 16.823 102.912 15.058 C 102.6 13.188 102.808 11.423 103.742 9.865 C 104.885 7.685 106.754 6.542 109.142 6.231 C 111.012 5.919 112.777 6.127 114.438 7.062 C 116.827 8.308 118.177 10.696 118.177 14.435 Z  M 114.542 13.292 C 114.75 15.681 113.296 17.758 111.219 18.069 C 108.104 18.485 106.131 16.2 106.442 13.085 C 106.65 11.008 107.792 9.658 109.454 9.242 C 112.154 8.723 114.335 10.488 114.542 13.292 C 114.542 13.292 114.542 13.396 114.542 13.292 Z " fill-rule="evenodd" fill="rgb(24,112,200)"/></g></g></svg>