<?xml version="1.0" standalone="no"?><!-- Generator: Gravit.io --><svg xmlns="http://www.w3.org/2000/svg" xmlns:xlink="http://www.w3.org/1999/xlink" style="isolation:isolate" viewBox="0 0 21.333 16" width="21.333" height="16"><defs><clipPath id="_clipPath_Wi8s60DvQrtL34kV9rTqRmgAt8Q9o9oR"><rect width="21.333" height="16"/></clipPath></defs><g clip-path="url(#_clipPath_Wi8s60DvQrtL34kV9rTqRmgAt8Q9o9oR)"><path d=" M 1.778 0 L 19.556 0 C 20.489 0 21.333 0.844 21.333 1.778 L 21.333 14.222 C 21.333 15.156 20.489 16 19.556 16 L 1.778 16 C 0.844 16 0 15.156 0 14.222 L 0 1.778 C 0 0.844 0.844 0 1.778 0 M 13.333 12.444 L 13.333 13.333 L 20.444 13.333 L 20.444 12.444 L 13.333 12.444 M 1.778 0 M 13.333 10.667 L 13.333 11.556 L 19.556 11.556 L 19.556 10.667 L 13.333 10.667 M 1.778 0 M 7.111 9.698 C 5.333 9.698 1.778 10.667 1.778 12.444 L 1.778 13.333 L 12.444 13.333 L 12.444 12.444 C 12.444 10.667 8.889 9.698 7.111 9.698 M 1.778 0 M 7.111 2.667 C 5.638 2.667 4.444 3.861 4.444 5.333 C 4.444 6.806 5.638 8 7.111 8 C 8.584 8 9.778 6.806 9.778 5.333 C 9.778 3.861 8.584 2.667 7.111 2.667 M 1.778 0 Z  M 15.826 2.579 L 15.826 3.826 L 14.579 3.826 L 13.333 3.826 L 13.333 4.667 L 13.333 5.508 L 14.579 5.508 L 15.826 5.508 L 15.826 6.754 L 15.826 8 L 16.667 8 L 17.508 8 L 17.508 6.754 L 17.508 5.508 L 18.754 5.508 L 20 5.508 L 20 4.667 L 20 3.826 L 18.754 3.826 L 17.508 3.826 L 17.508 2.579 L 17.508 1.333 L 16.667 1.333 L 15.826 1.333 L 15.826 2.579 Z " fill-rule="evenodd" fill="rgb(120,120,120)"/></g></svg>