<?xml version="1.0" encoding="UTF-8" standalone="no"?>
<svg
   xmlns:dc="http://purl.org/dc/elements/1.1/"
   xmlns:cc="http://creativecommons.org/ns#"
   xmlns:rdf="http://www.w3.org/1999/02/22-rdf-syntax-ns#"
   xmlns:svg="http://www.w3.org/2000/svg"
   xmlns="http://www.w3.org/2000/svg"
   xmlns:sodipodi="http://sodipodi.sourceforge.net/DTD/sodipodi-0.dtd"
   xmlns:inkscape="http://www.inkscape.org/namespaces/inkscape"
   version="1.1"
   width="35"
   height="27"
   viewBox="0 0 35 27"
   id="svg865"
   sodipodi:docname="scale-balance.svg"
   inkscape:version="0.92.2 (unknown)">
  <metadata
     id="metadata871">
    <rdf:RDF>
      <cc:Work
         rdf:about="">
        <dc:format>image/svg+xml</dc:format>
        <dc:type
           rdf:resource="http://purl.org/dc/dcmitype/StillImage" />
        <dc:title></dc:title>
      </cc:Work>
    </rdf:RDF>
  </metadata>
  <defs
     id="defs869" />
  <sodipodi:namedview
     pagecolor="#ffffff"
     bordercolor="#666666"
     borderopacity="1"
     objecttolerance="10"
     gridtolerance="10"
     guidetolerance="10"
     inkscape:pageopacity="0"
     inkscape:pageshadow="2"
     inkscape:window-width="1920"
     inkscape:window-height="1056"
     id="namedview867"
     showgrid="false"
     inkscape:zoom="25.083333"
     inkscape:cx="19.75441"
     inkscape:cy="12.435587"
     inkscape:window-x="1366"
     inkscape:window-y="24"
     inkscape:window-maximized="1"
     inkscape:current-layer="svg865" />
  <path
     d="M 17.481005,0 C 15.676268,0 14.070479,1.1368421 13.473636,2.8421053 H 4.6915311 V 5.6842105 H 7.4625838 L 3.2704785,15.631579 c -0.6678947,2.842105 1.4210526,4.263158 4.9736842,4.263158 3.5526313,0 5.7694733,-1.421053 4.9736843,-4.263158 L 9.0257417,5.6842105 h 4.4336843 c 0.468947,1.2078948 1.392631,2.131579 2.600526,2.6005263 V 24.157895 H 3.2704785 V 27 H 31.691531 V 24.157895 H 18.902057 V 8.2705263 c 1.207895,-0.4547368 2.131579,-1.378421 2.586316,-2.5863158 h 4.447895 l -4.192105,9.9473685 c -0.667895,2.842105 1.421052,4.263158 4.973684,4.263158 3.552632,0 5.769474,-1.421053 4.973684,-4.263158 L 27.499426,5.6842105 h 2.771053 V 2.8421053 H 21.502584 C 20.891531,1.1368421 19.285742,0 17.481005,0 m 0,2.8421053 A 1.4210526,1.4210526 0 0 1 18.902057,4.2631579 1.4210526,1.4210526 0 0 1 17.481005,5.6842105 1.4210526,1.4210526 0 0 1 16.059952,4.2631579 1.4210526,1.4210526 0 0 1 17.481005,2.8421053 M 8.2441627,10.302632 10.375742,15.631579 H 6.1125838 l 2.1315789,-5.328947 m 18.4736843,0 2.131579,5.328947 h -4.263158 z"
     id="path863"
     inkscape:connector-curvature="0"
     style="stroke-width:1.42105258;fill:#827717;fill-opacity:1" />
</svg>
