<?xml version="1.0" encoding="UTF-8" standalone="no"?>
<!-- Generator: Gravit.io -->

<svg
   xmlns:dc="http://purl.org/dc/elements/1.1/"
   xmlns:cc="http://creativecommons.org/ns#"
   xmlns:rdf="http://www.w3.org/1999/02/22-rdf-syntax-ns#"
   xmlns:svg="http://www.w3.org/2000/svg"
   xmlns="http://www.w3.org/2000/svg"
   xmlns:sodipodi="http://sodipodi.sourceforge.net/DTD/sodipodi-0.dtd"
   xmlns:inkscape="http://www.inkscape.org/namespaces/inkscape"
   style="isolation:isolate"
   viewBox="0 0 14.166667 16.999999"
   width="14.166667"
   height="17"
   version="1.1"
   id="svg877"
   sodipodi:docname="Documents_multiple.svg"
   inkscape:version="0.92.2 (unknown)">
  <metadata
     id="metadata881">
    <rdf:RDF>
      <cc:Work
         rdf:about="">
        <dc:format>image/svg+xml</dc:format>
        <dc:type
           rdf:resource="http://purl.org/dc/dcmitype/StillImage" />
      </cc:Work>
    </rdf:RDF>
  </metadata>
  <sodipodi:namedview
     pagecolor="#ffffff"
     bordercolor="#666666"
     borderopacity="1"
     objecttolerance="10"
     gridtolerance="10"
     guidetolerance="10"
     inkscape:pageopacity="0"
     inkscape:pageshadow="2"
     inkscape:window-width="1920"
     inkscape:window-height="1056"
     id="namedview879"
     showgrid="false"
     inkscape:zoom="47.604165"
     inkscape:cx="8"
     inkscape:cy="7.9194745"
     inkscape:window-x="1366"
     inkscape:window-y="24"
     inkscape:window-maximized="1"
     inkscape:current-layer="svg877" />
  <defs
     id="defs871">
    <clipPath
       id="_clipPath_BXFeToMX4VDGfMw6gxeMgQkpa9NkM2vz">
      <rect
         width="16"
         height="19.200001"
         id="rect868"
         x="0"
         y="0" />
    </clipPath>
  </defs>
  <g
     clip-path="url(#_clipPath_BXFeToMX4VDGfMw6gxeMgQkpa9NkM2vz)"
     id="g875"
     transform="scale(0.88541667)">
    <path
       d="m 10.4,5.6 h 4.4 L 10.4,1.2 Z M 4.8,0 h 6.4 L 16,4.8 v 9.6 C 16,15.284 15.284,16 14.4,16 H 4.8 C 3.912,16 3.2,15.28 3.2,14.4 V 1.6 C 3.2,0.712 3.912,0 4.8,0 Z M 12,12.8 V 11.2 H 4.8 v 1.6 z M 14.4,9.6 V 8 H 4.8 V 9.6 Z M 1.6,3.2 v 14.4 h 12.8 v 1.6 H 1.6 C 0.716,19.2 0,18.484 0,17.6 V 3.2 Z"
       id="path873"
       inkscape:connector-curvature="0"
       style="fill:#787878" />
  </g>
</svg>
