<?xml version="1.0" encoding="UTF-8" standalone="no"?>
<svg
   xmlns:dc="http://purl.org/dc/elements/1.1/"
   xmlns:cc="http://creativecommons.org/ns#"
   xmlns:rdf="http://www.w3.org/1999/02/22-rdf-syntax-ns#"
   xmlns:svg="http://www.w3.org/2000/svg"
   xmlns="http://www.w3.org/2000/svg"
   xmlns:sodipodi="http://sodipodi.sourceforge.net/DTD/sodipodi-0.dtd"
   xmlns:inkscape="http://www.inkscape.org/namespaces/inkscape"
   version="1.1"
   width="22"
   height="5.5"
   viewBox="0 0 22 5.5"
   id="svg865"
   sodipodi:docname="dots-horizontal.svg"
   inkscape:version="0.92.2 (unknown)">
  <metadata
     id="metadata871">
    <rdf:RDF>
      <cc:Work
         rdf:about="">
        <dc:format>image/svg+xml</dc:format>
        <dc:type
           rdf:resource="http://purl.org/dc/dcmitype/StillImage" />
        <dc:title />
      </cc:Work>
    </rdf:RDF>
  </metadata>
  <defs
     id="defs869" />
  <sodipodi:namedview
     pagecolor="#ffffff"
     bordercolor="#666666"
     borderopacity="1"
     objecttolerance="10"
     gridtolerance="10"
     guidetolerance="10"
     inkscape:pageopacity="0"
     inkscape:pageshadow="2"
     inkscape:window-width="1920"
     inkscape:window-height="1056"
     id="namedview867"
     showgrid="true"
     inkscape:zoom="26.928983"
     inkscape:cx="6.3213927"
     inkscape:cy="5.119032"
     inkscape:window-x="1366"
     inkscape:window-y="24"
     inkscape:window-maximized="1"
     inkscape:current-layer="svg865">
    <inkscape:grid
       type="xygrid"
       id="grid873"
       originx="0"
       originy="-8.25" />
  </sodipodi:namedview>
  <path
     d="M 5.5000002,2.75 A 2.75,2.75 0 0 1 2.75,5.5 2.75,2.75 0 0 1 0,2.75 2.75,2.75 0 0 1 2.75,0 2.75,2.75 0 0 1 5.5000002,2.75 M 13.75,2.75 A 2.75,2.75 0 0 1 11,5.5 2.75,2.75 0 0 1 8.25,2.75 2.75,2.75 0 0 1 11,0 2.75,2.75 0 0 1 13.75,2.75 m 8.25,0 A 2.75,2.75 0 0 1 19.25,5.5 2.75,2.75 0 0 1 16.5,2.75 2.75,2.75 0 0 1 19.25,0 2.75,2.75 0 0 1 22,2.75 Z"
     id="path863"
     inkscape:connector-curvature="0"
     style="fill:#787878;fill-opacity:1;stroke-width:1.375" />
</svg>
