<?xml version="1.0" encoding="UTF-8" standalone="no"?>
<svg
   xmlns:dc="http://purl.org/dc/elements/1.1/"
   xmlns:cc="http://creativecommons.org/ns#"
   xmlns:rdf="http://www.w3.org/1999/02/22-rdf-syntax-ns#"
   xmlns:svg="http://www.w3.org/2000/svg"
   xmlns="http://www.w3.org/2000/svg"
   xmlns:sodipodi="http://sodipodi.sourceforge.net/DTD/sodipodi-0.dtd"
   xmlns:inkscape="http://www.inkscape.org/namespaces/inkscape"
   version="1.1"
   width="15"
   height="15"
   viewBox="0 0 15 15"
   id="svg846"
   sodipodi:docname="drive-notification.svg"
   inkscape:version="0.92.2 (unknown)">
  <metadata
     id="metadata852">
    <rdf:RDF>
      <cc:Work
         rdf:about="">
        <dc:format>image/svg+xml</dc:format>
        <dc:type
           rdf:resource="http://purl.org/dc/dcmitype/StillImage" />
        <dc:title></dc:title>
      </cc:Work>
    </rdf:RDF>
  </metadata>
  <defs
     id="defs850" />
  <sodipodi:namedview
     pagecolor="#ffffff"
     bordercolor="#666666"
     borderopacity="1"
     objecttolerance="10"
     gridtolerance="10"
     guidetolerance="10"
     inkscape:pageopacity="0"
     inkscape:pageshadow="2"
     inkscape:window-width="1920"
     inkscape:window-height="1056"
     id="namedview848"
     showgrid="false"
     inkscape:zoom="26.928983"
     inkscape:cx="7.1407959"
     inkscape:cy="13.055021"
     inkscape:window-x="1366"
     inkscape:window-y="24"
     inkscape:window-maximized="1"
     inkscape:current-layer="svg846" />
  <path
     d="M 8.25,12 H 9 a 0.75,0.75 0 0 1 0.75,0.75 H 15 v 1.5 H 9.75 A 0.75,0.75 0 0 1 9,15 H 6 A 0.75,0.75 0 0 1 5.25,14.25 H 0 v -1.5 H 5.25 A 0.75,0.75 0 0 1 6,12 H 6.75 V 10.5 H 1.5 A 0.75,0.75 0 0 1 0.75,9.75 v -3 A 0.75,0.75 0 0 1 1.5,6 h 12 a 0.75,0.75 0 0 1 0.75,0.75 v 3 A 0.75,0.75 0 0 1 13.5,10.5 H 8.25 V 12 M 1.5,0 h 12 a 0.75,0.75 0 0 1 0.75,0.75 v 3 A 0.75,0.75 0 0 1 13.5,4.5 H 1.5 A 0.75,0.75 0 0 1 0.75,3.75 v -3 A 0.75,0.75 0 0 1 1.5,0 M 5.25,3 H 6 V 1.5 H 5.25 V 3 m 0,6 H 6 V 7.5 H 5.25 V 9 m -3,-7.5 V 3 h 1.5 V 1.5 h -1.5 m 0,6 V 9 h 1.5 V 7.5 Z"
     id="path844"
     inkscape:connector-curvature="0"
     style="fill:#d5d5d5;fill-opacity:1;stroke-width:0.75" />
</svg>
