<?xml version="1.0" encoding="UTF-8" standalone="no"?>
<svg
   xmlns:dc="http://purl.org/dc/elements/1.1/"
   xmlns:cc="http://creativecommons.org/ns#"
   xmlns:rdf="http://www.w3.org/1999/02/22-rdf-syntax-ns#"
   xmlns:svg="http://www.w3.org/2000/svg"
   xmlns="http://www.w3.org/2000/svg"
   xmlns:sodipodi="http://sodipodi.sourceforge.net/DTD/sodipodi-0.dtd"
   xmlns:inkscape="http://www.inkscape.org/namespaces/inkscape"
   version="1.1"
   width="35"
   height="27"
   viewBox="0 0 35 27"
   id="svg846"
   sodipodi:docname="Drive.svg"
   inkscape:version="0.92.2 (unknown)">
  <metadata
     id="metadata852">
    <rdf:RDF>
      <cc:Work
         rdf:about="">
        <dc:format>image/svg+xml</dc:format>
        <dc:type
           rdf:resource="http://purl.org/dc/dcmitype/StillImage" />
        <dc:title />
      </cc:Work>
    </rdf:RDF>
  </metadata>
  <defs
     id="defs850" />
  <sodipodi:namedview
     pagecolor="#ffffff"
     bordercolor="#666666"
     borderopacity="1"
     objecttolerance="10"
     gridtolerance="10"
     guidetolerance="10"
     inkscape:pageopacity="0"
     inkscape:pageshadow="2"
     inkscape:window-width="1920"
     inkscape:window-height="1056"
     id="namedview848"
     showgrid="false"
     inkscape:zoom="24.562178"
     inkscape:cx="8.6329427"
     inkscape:cy="10.766203"
     inkscape:window-x="1366"
     inkscape:window-y="24"
     inkscape:window-maximized="1"
     inkscape:current-layer="svg846" />
  <path
     d="m 18.85,21.6 h 1.35 a 1.35,1.35 0 0 1 1.35,1.35 H 31 v 2.7 H 21.55 A 1.35,1.35 0 0 1 20.2,27 H 14.8 A 1.35,1.35 0 0 1 13.45,25.65 H 4 v -2.7 h 9.45 A 1.35,1.35 0 0 1 14.8,21.6 h 1.35 V 18.9 H 6.7 A 1.35,1.35 0 0 1 5.35,17.55 v -5.4 A 1.35,1.35 0 0 1 6.7,10.8 h 21.6 a 1.35,1.35 0 0 1 1.35,1.35 v 5.4 A 1.35,1.35 0 0 1 28.3,18.9 h -9.45 v 2.7 M 6.7,0 h 21.6 a 1.35,1.35 0 0 1 1.35,1.35 v 5.4 A 1.35,1.35 0 0 1 28.3,8.1 H 6.7 A 1.35,1.35 0 0 1 5.35,6.75 V 1.35 A 1.35,1.35 0 0 1 6.7,0 m 6.75,5.4 H 14.8 V 2.7 h -1.35 v 2.7 m 0,10.8 h 1.35 v -2.7 h -1.35 v 2.7 M 8.05,2.7 v 2.7 h 2.7 V 2.7 h -2.7 m 0,10.8 v 2.7 h 2.7 v -2.7 z"
     id="path844"
     inkscape:connector-curvature="0"
     style="fill:#607d8b;fill-opacity:1;stroke-width:1.35000002" />
</svg>
