<?xml version="1.0" encoding="UTF-8" standalone="no"?>
<svg
   xmlns:dc="http://purl.org/dc/elements/1.1/"
   xmlns:cc="http://creativecommons.org/ns#"
   xmlns:rdf="http://www.w3.org/1999/02/22-rdf-syntax-ns#"
   xmlns:svg="http://www.w3.org/2000/svg"
   xmlns="http://www.w3.org/2000/svg"
   xmlns:sodipodi="http://sodipodi.sourceforge.net/DTD/sodipodi-0.dtd"
   xmlns:inkscape="http://www.inkscape.org/namespaces/inkscape"
   version="1.1"
   width="16"
   height="16"
   viewBox="0 0 16 16"
   id="svg2448"
   sodipodi:docname="facebook-box-not-identity.svg"
   inkscape:version="0.92.2 (unknown)">
  <metadata
     id="metadata2454">
    <rdf:RDF>
      <cc:Work
         rdf:about="">
        <dc:format>image/svg+xml</dc:format>
        <dc:type
           rdf:resource="http://purl.org/dc/dcmitype/StillImage" />
        <dc:title></dc:title>
      </cc:Work>
    </rdf:RDF>
  </metadata>
  <defs
     id="defs2452" />
  <sodipodi:namedview
     pagecolor="#ffffff"
     bordercolor="#666666"
     borderopacity="1"
     objecttolerance="10"
     gridtolerance="10"
     guidetolerance="10"
     inkscape:pageopacity="0"
     inkscape:pageshadow="2"
     inkscape:window-width="1920"
     inkscape:window-height="1056"
     id="namedview2450"
     showgrid="false"
     inkscape:zoom="38.083333"
     inkscape:cx="4.6017505"
     inkscape:cy="9"
     inkscape:window-x="1366"
     inkscape:window-y="24"
     inkscape:window-maximized="1"
     inkscape:current-layer="svg2448" />
  <path
     d="M 1.7777778,0 H 14.222222 A 1.7777778,1.7777778 0 0 1 16,1.7777778 V 14.222222 A 1.7777778,1.7777778 0 0 1 14.222222,16 H 1.7777778 A 1.7777778,1.7777778 0 0 1 0,14.222222 V 1.7777778 A 1.7777778,1.7777778 0 0 1 1.7777778,0 M 13.333333,1.7777778 H 11.111111 A 3.1111111,3.1111111 0 0 0 8,4.8888889 V 7.111111 H 6.2222222 V 9.777778 H 8 V 16 h 2.666667 V 9.777778 h 2.666666 V 7.111111 H 10.666667 V 5.333333 a 0.88888889,0.88888889 0 0 1 0.888889,-0.8888886 h 1.777777 z"
     id="path2446"
     inkscape:connector-curvature="0"
     style="stroke-width:0.8888889;fill:#acacac;fill-opacity:1" />
</svg>
