<?xml version="1.0" standalone="no"?><!-- Generator: Gravit.io --><svg xmlns="http://www.w3.org/2000/svg" xmlns:xlink="http://www.w3.org/1999/xlink" style="isolation:isolate" viewBox="0 0 35 27" width="35" height="27"><defs><clipPath id="_clipPath_Ae8hFwnHZOY4Dv2wbsFR0QwiLt8fcJKM"><rect width="35" height="27"/></clipPath></defs><g clip-path="url(#_clipPath_Ae8hFwnHZOY4Dv2wbsFR0QwiLt8fcJKM)"><g id="Group"><path d=" M 17.5 0 C 10.044 0 4 6.044 4 13.5 C 4 20.956 10.044 27 17.5 27 C 24.956 27 31 20.956 31 13.5 C 31 6.044 24.956 0 17.5 0 Z  M 13.859 19.102 L 11.438 19.102 L 11.438 7.68 L 13.859 7.68 L 13.859 19.102 M 26.211 13.281 Q 26.211 16.102 24.605 17.602 Q 23 19.102 19.969 19.102 L 16.734 19.102 L 16.734 7.68 L 20.32 7.68 Q 23.117 7.68 24.664 9.156 Q 26.211 10.633 26.211 13.281 M 23.695 13.344 Q 23.695 9.664 20.445 9.664 L 19.156 9.664 L 19.156 17.102 L 20.195 17.102 Q 23.695 17.102 23.695 13.344 M 13.859 19.102 Z " fill-rule="evenodd" fill="rgb(24,112,200)"/></g></g></svg>