<?xml version="1.0" encoding="UTF-8" standalone="no"?>
<!-- Generator: Gravit.io -->

<svg
   xmlns:dc="http://purl.org/dc/elements/1.1/"
   xmlns:cc="http://creativecommons.org/ns#"
   xmlns:rdf="http://www.w3.org/1999/02/22-rdf-syntax-ns#"
   xmlns:svg="http://www.w3.org/2000/svg"
   xmlns="http://www.w3.org/2000/svg"
   xmlns:sodipodi="http://sodipodi.sourceforge.net/DTD/sodipodi-0.dtd"
   xmlns:inkscape="http://www.inkscape.org/namespaces/inkscape"
   style="isolation:isolate"
   viewBox="0 0 14 20"
   width="14"
   height="20"
   version="1.1"
   id="svg877"
   sodipodi:docname="map-marker_big.svg"
   inkscape:version="0.92.2 (unknown)">
  <metadata
     id="metadata881">
    <rdf:RDF>
      <cc:Work
         rdf:about="">
        <dc:format>image/svg+xml</dc:format>
        <dc:type
           rdf:resource="http://purl.org/dc/dcmitype/StillImage" />
        <dc:title></dc:title>
      </cc:Work>
    </rdf:RDF>
  </metadata>
  <sodipodi:namedview
     pagecolor="#ffffff"
     bordercolor="#666666"
     borderopacity="1"
     objecttolerance="10"
     gridtolerance="10"
     guidetolerance="10"
     inkscape:pageopacity="0"
     inkscape:pageshadow="2"
     inkscape:window-width="1920"
     inkscape:window-height="1056"
     id="namedview879"
     showgrid="false"
     inkscape:zoom="37.625"
     inkscape:cx="7.8671096"
     inkscape:cy="12.252492"
     inkscape:window-x="1366"
     inkscape:window-y="24"
     inkscape:window-maximized="1"
     inkscape:current-layer="svg877" />
  <defs
     id="defs871">
    <clipPath
       id="_clipPath_hks9v3dm47a8g5lfcYMLq8xqHZPIj6H0">
      <rect
         width="16"
         height="16"
         id="rect868"
         x="0"
         y="0" />
    </clipPath>
  </defs>
  <g
     clip-path="url(#_clipPath_hks9v3dm47a8g5lfcYMLq8xqHZPIj6H0)"
     id="g875"
     transform="matrix(1.25,0,0,1.25,-3,0)">
    <path
       d="M 8,0 C 6.515,0 5.09,0.59 4.04,1.64 2.99,2.69 2.4,4.115 2.4,5.6 2.4,9.8 8,16 8,16 8,16 13.6,9.8 13.6,5.6 13.6,4.115 13.01,2.69 11.96,1.64 10.91,0.59 9.485,0 8,0 M 7.375,3.813 H 5.313 V 5.875 H 7.375 V 3.813 M 8,0 m 0.75,5.875 h 2.063 V 3.813 H 8.75 V 5.875 M 8,0 Z M 7.375,7.25 H 5.313 v 2.063 h 2.062 z"
       id="path873"
       inkscape:connector-curvature="0"
       style="fill:#a6a6a6;fill-rule:evenodd" />
  </g>
</svg>
