<?xml version="1.0" standalone="no"?><!-- Generator: Gravit.io --><svg xmlns="http://www.w3.org/2000/svg" xmlns:xlink="http://www.w3.org/1999/xlink" style="isolation:isolate" viewBox="0 0 16 16" width="16" height="16"><defs><clipPath id="_clipPath_hks9v3dm47a8g5lfcYMLq8xqHZPIj6H0"><rect width="16" height="16"/></clipPath></defs><g clip-path="url(#_clipPath_hks9v3dm47a8g5lfcYMLq8xqHZPIj6H0)"><path d=" M 8 0 C 6.515 0 5.09 0.59 4.04 1.64 C 2.99 2.69 2.4 4.115 2.4 5.6 C 2.4 9.8 8 16 8 16 C 8 16 13.6 9.8 13.6 5.6 C 13.6 4.115 13.01 2.69 11.96 1.64 C 10.91 0.59 9.485 0 8 0 M 7.375 3.813 L 5.313 3.813 L 5.313 5.875 L 7.375 5.875 L 7.375 3.813 M 8 0 M 8.75 5.875 L 10.813 5.875 L 10.813 3.813 L 8.75 3.813 L 8.75 5.875 M 8 0 Z  M 7.375 7.25 L 5.313 7.25 L 5.313 9.313 L 7.375 9.313 L 7.375 7.25 Z " fill-rule="evenodd" fill="rgb(166,166,166)"/></g></svg>