<?xml version="1.0" encoding="UTF-8" standalone="no"?>
<svg
   xmlns:dc="http://purl.org/dc/elements/1.1/"
   xmlns:cc="http://creativecommons.org/ns#"
   xmlns:rdf="http://www.w3.org/1999/02/22-rdf-syntax-ns#"
   xmlns:svg="http://www.w3.org/2000/svg"
   xmlns="http://www.w3.org/2000/svg"
   xmlns:sodipodi="http://sodipodi.sourceforge.net/DTD/sodipodi-0.dtd"
   xmlns:inkscape="http://www.inkscape.org/namespaces/inkscape"
   version="1.1"
   width="16"
   height="16"
   viewBox="0 0 16 16"
   id="svg2458"
   sodipodi:docname="twitter-box.svg"
   inkscape:version="0.92.2 (unknown)">
  <metadata
     id="metadata2464">
    <rdf:RDF>
      <cc:Work
         rdf:about="">
        <dc:format>image/svg+xml</dc:format>
        <dc:type
           rdf:resource="http://purl.org/dc/dcmitype/StillImage" />
      </cc:Work>
    </rdf:RDF>
  </metadata>
  <defs
     id="defs2462" />
  <sodipodi:namedview
     pagecolor="#ffffff"
     bordercolor="#666666"
     borderopacity="1"
     objecttolerance="10"
     gridtolerance="10"
     guidetolerance="10"
     inkscape:pageopacity="0"
     inkscape:pageshadow="2"
     inkscape:window-width="1920"
     inkscape:window-height="1056"
     id="namedview2460"
     showgrid="false"
     inkscape:zoom="9.8333333"
     inkscape:cx="9"
     inkscape:cy="9"
     inkscape:window-x="1366"
     inkscape:window-y="24"
     inkscape:window-maximized="1"
     inkscape:current-layer="svg2458" />
  <path
     d="M 1.7777778,0 H 14.222222 A 1.7777778,1.7777778 0 0 1 16,1.7777778 V 14.222222 A 1.7777778,1.7777778 0 0 1 14.222222,16 H 1.7777778 A 1.7777778,1.7777778 0 0 1 0,14.222222 V 1.7777778 A 1.7777778,1.7777778 0 0 1 1.7777778,0 M 13.075556,5.626667 C 13.502222,5.271111 14,4.8444444 14.222222,4.3733333 13.857778,4.56 13.422222,4.6755556 12.942222,4.7377778 13.386667,4.4177778 13.751111,4 13.937778,3.4311111 13.475556,3.68 13.004444,3.8933333 12.417778,4 11.04,2.3377778 7.742222,3.6888889 8.328889,6.177778 6.0088889,6.035556 4.5955556,4.9866667 3.4222222,3.6977778 2.7555556,4.7822222 3.3333333,6.426667 4.1244444,6.88 3.7155556,6.85333 3.4044444,6.728889 3.1111111,6.586667 3.1466671,7.955556 3.9022222,8.613333 4.96,8.968889 4.64,9.031109 4.2844444,9.048889 3.9466667,8.995559 4.2755556,9.94667 4.96,10.542225 6.1333333,10.66667 c -0.8,0.675555 -2.2755555,1.146666 -3.4666666,0.96 1.0222222,0.648889 2.1866666,1.164444 3.8044444,1.093333 C 10.391111,12.542225 13.013333,9.733336 13.075556,5.62667 Z"
     id="path2456"
     inkscape:connector-curvature="0"
     style="stroke-width:0.8888889;fill:#787878;fill-opacity:1" />
</svg>
