<?xml version="1.0" encoding="UTF-8" standalone="no"?>
<!-- Generator: Gravit.io -->

<svg
   xmlns:dc="http://purl.org/dc/elements/1.1/"
   xmlns:cc="http://creativecommons.org/ns#"
   xmlns:rdf="http://www.w3.org/1999/02/22-rdf-syntax-ns#"
   xmlns:svg="http://www.w3.org/2000/svg"
   xmlns="http://www.w3.org/2000/svg"
   xmlns:sodipodi="http://sodipodi.sourceforge.net/DTD/sodipodi-0.dtd"
   xmlns:inkscape="http://www.inkscape.org/namespaces/inkscape"
   style="isolation:isolate"
   viewBox="0 0 35 27"
   width="35"
   height="27"
   version="1.1"
   id="svg862"
   sodipodi:docname="LogoShareX.svg"
   inkscape:version="0.92.2 (unknown)">
  <metadata
     id="metadata866">
    <rdf:RDF>
      <cc:Work
         rdf:about="">
        <dc:format>image/svg+xml</dc:format>
        <dc:type
           rdf:resource="http://purl.org/dc/dcmitype/StillImage" />
        <dc:title></dc:title>
      </cc:Work>
    </rdf:RDF>
  </metadata>
  <sodipodi:namedview
     pagecolor="#ffffff"
     bordercolor="#666666"
     borderopacity="1"
     objecttolerance="10"
     gridtolerance="10"
     guidetolerance="10"
     inkscape:pageopacity="0"
     inkscape:pageshadow="2"
     inkscape:window-width="1920"
     inkscape:window-height="1056"
     id="namedview864"
     showgrid="false"
     inkscape:zoom="26.604893"
     inkscape:cx="13.134053"
     inkscape:cy="13.795065"
     inkscape:window-x="1366"
     inkscape:window-y="24"
     inkscape:window-maximized="1"
     inkscape:current-layer="svg862" />
  <defs
     id="defs854">
    <clipPath
       id="_clipPath_K8ywzbkv8dCttKTxMxD0VvGXtE2L0ThR">
      <rect
         width="16"
         height="16"
         id="rect851"
         x="0"
         y="0" />
    </clipPath>
  </defs>
  <g
     clip-path="url(#_clipPath_K8ywzbkv8dCttKTxMxD0VvGXtE2L0ThR)"
     id="g860"
     transform="matrix(1.6875,0,0,1.6875,4,0)">
    <path
       d="M 14.222,0 H 1.778 C 0.791,0 0,0.791 0,1.778 V 14.222 C 0,15.204 0.796,16 1.778,16 H 14.222 C 15.204,16 16,15.204 16,14.222 V 1.778 C 16,0.791 15.2,0 14.222,0 Z"
       id="path856"
       inkscape:connector-curvature="0"
       style="fill:#1870c8" />
    <path
       d="m 9.887,3.258 c 0,0.495 0.196,1.092 0.502,1.43 L 8.11,9.856 C 7.96,9.824 7.772,9.794 7.68,9.798 7.524,9.798 7.342,9.824 7.192,9.856 L 5.778,7.965 C 6.103,7.613 6.224,7.152 6.224,6.638 c 0,-1.077 -0.874,-1.95 -1.951,-1.95 -1.077,0 -1.95,0.873 -1.95,1.95 0,1.077 0.873,1.951 1.95,1.951 0.156,0 0.387,-0.026 0.536,-0.059 l 1.415,1.892 c -0.374,0.504 -0.401,0.782 -0.384,1.326 0,1.078 0.898,1.951 1.975,1.951 1.077,0 1.95,-0.873 1.95,-1.951 0,-0.513 -0.201,-0.975 -0.526,-1.326 L 11.518,5.26 c 0.136,0.032 0.43,0 0.579,0 1.255,-0.324 1.58,-0.955 1.58,-2.002 0,-1.046 -0.845,-1.898 -1.892,-1.898 -0.503,0 -0.986,0.2 -1.342,0.556 -0.356,0.356 -0.556,0.839 -0.556,1.342 z"
       id="path858"
       inkscape:connector-curvature="0"
       style="fill:#ffffff" />
  </g>
</svg>
