<?xml version="1.0" encoding="UTF-8" standalone="no"?>
<svg
   xmlns:dc="http://purl.org/dc/elements/1.1/"
   xmlns:cc="http://creativecommons.org/ns#"
   xmlns:rdf="http://www.w3.org/1999/02/22-rdf-syntax-ns#"
   xmlns:svg="http://www.w3.org/2000/svg"
   xmlns="http://www.w3.org/2000/svg"
   xmlns:sodipodi="http://sodipodi.sourceforge.net/DTD/sodipodi-0.dtd"
   xmlns:inkscape="http://www.inkscape.org/namespaces/inkscape"
   version="1.1"
   width="35"
   height="27"
   viewBox="0 0 35 27"
   id="svg934"
   sodipodi:docname="wallet.svg"
   inkscape:version="0.92.2 (unknown)">
  <metadata
     id="metadata940">
    <rdf:RDF>
      <cc:Work
         rdf:about="">
        <dc:format>image/svg+xml</dc:format>
        <dc:type
           rdf:resource="http://purl.org/dc/dcmitype/StillImage" />
        <dc:title />
      </cc:Work>
    </rdf:RDF>
  </metadata>
  <defs
     id="defs938" />
  <sodipodi:namedview
     pagecolor="#ffffff"
     bordercolor="#666666"
     borderopacity="1"
     objecttolerance="10"
     gridtolerance="10"
     guidetolerance="10"
     inkscape:pageopacity="0"
     inkscape:pageshadow="2"
     inkscape:window-width="1920"
     inkscape:window-height="1056"
     id="namedview936"
     showgrid="false"
     inkscape:zoom="25.368377"
     inkscape:cx="21.538331"
     inkscape:cy="15.880015"
     inkscape:window-x="1366"
     inkscape:window-y="24"
     inkscape:window-maximized="1"
     inkscape:current-layer="svg934" />
  <path
     d="M 30.25,22.5 V 24 a 3.0000001,3.0000001 0 0 1 -3,3 H 6.2499996 c -1.665,0 -3.0000001,-1.35 -3.0000001,-3 V 2.9999998 A 3.0000001,3.0000001 0 0 1 6.2499996,0 H 27.25 a 3.0000001,3.0000001 0 0 1 3,2.9999998 v 1.4999993 h -13.5 c -1.665,0 -3,1.3500014 -3,2.9999998 V 19.500001 a 3.0000001,3.0000001 0 0 0 3,2.999999 m 0,-2.999999 h 15 V 7.4999989 h -15 M 22.75,15.75 A 2.25,2.25 0 0 1 20.5,13.5 2.25,2.25 0 0 1 22.75,11.249999 2.25,2.25 0 0 1 24.999999,13.5 2.25,2.25 0 0 1 22.75,15.75 Z"
     id="path932"
     style="fill:#f44336;fill-opacity:1;stroke-width:1.5"
     inkscape:connector-curvature="0" />
</svg>
