<?xml version="1.0" encoding="UTF-8" standalone="no"?>
<svg
   xmlns:dc="http://purl.org/dc/elements/1.1/"
   xmlns:cc="http://creativecommons.org/ns#"
   xmlns:rdf="http://www.w3.org/1999/02/22-rdf-syntax-ns#"
   xmlns:svg="http://www.w3.org/2000/svg"
   xmlns="http://www.w3.org/2000/svg"
   xmlns:sodipodi="http://sodipodi.sourceforge.net/DTD/sodipodi-0.dtd"
   xmlns:inkscape="http://www.inkscape.org/namespaces/inkscape"
   version="1.1"
   width="15"
   height="15"
   viewBox="0 0 15 15"
   id="svg934"
   sodipodi:docname="wallet-notification.svg"
   inkscape:version="0.92.2 (unknown)">
  <metadata
     id="metadata940">
    <rdf:RDF>
      <cc:Work
         rdf:about="">
        <dc:format>image/svg+xml</dc:format>
        <dc:type
           rdf:resource="http://purl.org/dc/dcmitype/StillImage" />
        <dc:title></dc:title>
      </cc:Work>
    </rdf:RDF>
  </metadata>
  <defs
     id="defs938" />
  <sodipodi:namedview
     pagecolor="#ffffff"
     bordercolor="#666666"
     borderopacity="1"
     objecttolerance="10"
     gridtolerance="10"
     guidetolerance="10"
     inkscape:pageopacity="0"
     inkscape:pageshadow="2"
     inkscape:window-width="1920"
     inkscape:window-height="1056"
     id="namedview936"
     showgrid="false"
     inkscape:zoom="19.666667"
     inkscape:cx="17.203129"
     inkscape:cy="3.1718304"
     inkscape:window-x="1366"
     inkscape:window-y="24"
     inkscape:window-maximized="1"
     inkscape:current-layer="svg934" />
  <path
     d="m 14.210527,12.236842 v 0.789473 a 1.5789474,1.5789474 0 0 1 -1.578948,1.578948 H 1.5789477 C 0.70263185,14.605263 2.5000001e-7,13.894737 2.5000001e-7,13.026315 V 1.9736846 A 1.5789474,1.5789474 0 0 1 1.5789477,0.39473692 H 12.631579 A 1.5789474,1.5789474 0 0 1 14.210527,1.9736846 V 2.763158 H 7.1052638 c -0.8763159,0 -1.5789475,0.7105263 -1.5789475,1.5789467 v 6.3157903 a 1.5789474,1.5789474 0 0 0 1.5789475,1.578947 m 0,-1.578947 H 15 V 4.3421047 H 7.1052638 M 10.263158,8.6842105 A 1.1842105,1.1842105 0 0 1 9.0789478,7.5 1.1842105,1.1842105 0 0 1 10.263158,6.3157886 1.1842105,1.1842105 0 0 1 11.447369,7.5 1.1842105,1.1842105 0 0 1 10.263158,8.6842105 Z"
     id="path932"
     style="fill:#d5d5d5;fill-opacity:1;stroke-width:0.78947365"
     inkscape:connector-curvature="0" />
</svg>
