<?xml version="1.0" encoding="UTF-8" standalone="no"?>
<svg
   xmlns:dc="http://purl.org/dc/elements/1.1/"
   xmlns:cc="http://creativecommons.org/ns#"
   xmlns:rdf="http://www.w3.org/1999/02/22-rdf-syntax-ns#"
   xmlns:svg="http://www.w3.org/2000/svg"
   xmlns="http://www.w3.org/2000/svg"
   xmlns:sodipodi="http://sodipodi.sourceforge.net/DTD/sodipodi-0.dtd"
   xmlns:inkscape="http://www.inkscape.org/namespaces/inkscape"
   version="1.1"
   width="35"
   height="27"
   viewBox="0 0 35 27"
   id="svg900"
   sodipodi:docname="wiki.svg"
   inkscape:version="0.92.2 (unknown)">
  <metadata
     id="metadata906">
    <rdf:RDF>
      <cc:Work
         rdf:about="">
        <dc:format>image/svg+xml</dc:format>
        <dc:type
           rdf:resource="http://purl.org/dc/dcmitype/StillImage" />
        <dc:title />
      </cc:Work>
    </rdf:RDF>
  </metadata>
  <defs
     id="defs904" />
  <sodipodi:namedview
     pagecolor="#ffffff"
     bordercolor="#666666"
     borderopacity="1"
     objecttolerance="10"
     gridtolerance="10"
     guidetolerance="10"
     inkscape:pageopacity="0"
     inkscape:pageshadow="2"
     inkscape:window-width="1920"
     inkscape:window-height="1056"
     id="namedview902"
     showgrid="false"
     inkscape:zoom="24.292581"
     inkscape:cx="14.553335"
     inkscape:cy="13.784466"
     inkscape:window-x="1366"
     inkscape:window-y="24"
     inkscape:window-maximized="1"
     inkscape:current-layer="svg900" />
  <path
     d="m 22.6975,24.783611 -4.48,-10.552499 c -1.785,3.4825 -3.745,7.14 -5.425,10.552499 -0.0175,0.0175 -0.8225,0 -0.8225,0 C 9.3975,18.746111 6.7374998,12.796111 4.1475,6.8111109 3.5525,5.3411109 1.4525,2.9961113 0,2.9961113 0,2.8211114 0,2.4361114 0,2.2086113 h 8.855 v 0.7875 c -1.0499998,0 -2.835,0.7000001 -2.38,1.8375 1.2600003,2.6949996 5.67,13.1424997 6.8775,15.8025007 0.8225,-1.645001 3.15,-5.985001 4.1475,-7.822501 -0.7875,-1.539999 -3.2725,-7.3150001 -4.0075,-8.7499996 -0.56,-0.945 -1.9775,-1.0675001 -3.0625,-1.0675001 0,-0.2624999 0.0175,-0.4375 0,-0.7699999 l 7.805,0.0175 v 0.6999999 c -1.0675,0.0525 -2.065,0.42 -1.61,1.435 1.05,2.1699996 1.6625,3.7275006 2.625,5.7399997 0.2975,-0.5950001 1.8725,-3.8325001 2.625,-5.5299996 0.455,-1.1375001 -0.2275,-1.5925001 -2.1175,-1.5925001 0.0175,-0.21 0.0175,-0.5775 0.0175,-0.7524999 2.4325,-0.0175 6.09,-0.0175 6.7375,-0.035 v 0.735 c -1.242499,0.0525 -2.519999,0.7175 -3.185,1.7325 L 20.125,11.396111 c 0.315,0.8925 3.43,7.805001 3.7625,8.575001 L 30.625,4.5186114 C 30.1,3.2586114 28.595,2.9961113 28,2.9961113 c 0,-0.2274999 0,-0.5249999 0,-0.7875 l 7,0.0525 v 0.035 0.7 c -1.54,0 -2.5025,0.875 -3.0625,2.1874996 -1.4,3.132501 -5.6875,13.1075001 -8.4875,19.6000001 0,0 -0.7525,0 -0.7525,0 z"
     id="path898"
     inkscape:connector-curvature="0"
     style="stroke-width:1.74999988;fill:#414141;fill-opacity:1" />
</svg>
